<?xml version="1.0" encoding="UTF-8" standalone="no"?>
<!DOCTYPE svg PUBLIC "-//W3C//DTD SVG 1.1//EN" "http://www.w3.org/Graphics/SVG/1.1/DTD/svg11.dtd">
<svg xmlns="http://www.w3.org/2000/svg" version="1.1" viewBox="0.00 0.00 145.00 162.00">
<g stroke-width="2.00" fill="none" stroke-linecap="butt">
<path stroke="#523d1f" vector-effect="non-scaling-stroke" d="
  M 32.73 25.14
  Q 8.59 40.92 2.75 68.89
  Q 0.57 79.36 1.73 89.99
  Q 1.86 91.26 2.94 91.99
  Q 4.18 92.84 5.23 91.76
  L 11.24 85.61
  Q 11.74 85.10 11.75 84.39
  Q 12.00 65.10 22.85 49.34
  Q 25.74 45.15 35.06 36.85"
/>
<path stroke="#6b603c" vector-effect="non-scaling-stroke" d="
  M 35.06 36.85
  Q 53.88 23.36 76.41 26.11
  Q 82.91 26.90 89.29 29.38
  Q 96.04 32.00 101.19 35.57
  Q 103.36 37.07 110.00 43.08"
/>
<path stroke="#523d1f" vector-effect="non-scaling-stroke" d="
  M 110.00 43.08
  Q 119.63 53.22 124.03 67.25
  Q 124.65 69.25 124.84 70.93
  C 125.19 74.01 125.83 77.01 125.94 80.09
  Q 126.64 100.55 114.08 116.84
  Q 110.49 121.49 102.44 128.30"
/>
<path stroke="#6b603c" vector-effect="non-scaling-stroke" d="
  M 102.44 128.30
  Q 70.61 149.48 37.80 129.69
  Q 35.96 128.58 31.00 124.37"
/>
<path stroke="#584525" vector-effect="non-scaling-stroke" d="
  M 31.00 124.37
  Q 24.26 117.85 19.05 108.77
  Q 18.80 108.32 19.16 107.96
  L 37.18 90.17"
/>
<path stroke="#6b603c" vector-effect="non-scaling-stroke" d="
  M 37.18 90.17
  L 40.00 87.51
  Q 40.35 87.18 40.69 87.52
  L 63.62 110.41
  A 1.80 1.80 0.0 0 0 66.16 110.41
  L 98.79 77.78
  Q 99.94 76.62 99.94 78.26
  L 99.95 87.74
  Q 99.95 88.29 100.49 88.29
  L 109.77 88.27
  A 0.60 0.60 0.0 0 0 110.37 87.67
  Q 110.39 75.47 110.36 62.27
  Q 110.35 60.71 110.15 59.12
  A 0.96 0.95 -3.4 0 0 109.20 58.28
  L 80.89 58.24
  Q 80.27 58.24 80.27 58.86
  L 80.27 68.12
  A 1.00 0.99 -86.8 0 0 81.15 69.11
  Q 86.25 69.70 91.31 69.13
  Q 91.77 69.08 91.44 69.40
  L 65.54 95.39
  Q 65.19 95.74 64.85 95.39
  Q 54.38 84.83 44.53 74.98
  Q 42.96 73.41 41.21 72.13
  Q 40.38 71.52 39.63 72.24
  L 36.45 75.33"
/>
<path stroke="#584525" vector-effect="non-scaling-stroke" d="
  M 36.45 75.33
  Q 21.81 89.72 7.46 104.28
  Q 6.74 105.01 6.47 105.97
  Q 6.16 107.11 6.58 108.01
  Q 13.87 123.66 21.98 131.28
  Q 23.76 132.95 29.98 137.64"
/>
<path stroke="#6b603c" vector-effect="non-scaling-stroke" d="
  M 29.98 137.64
  Q 41.39 145.55 55.38 148.70
  Q 58.44 149.38 61.59 149.57
  Q 64.67 149.74 67.92 150.11
  Q 72.82 150.65 77.06 149.92
  C 86.62 148.28 95.69 145.48 104.10 140.55"
/>
<path stroke="#523d1f" vector-effect="non-scaling-stroke" d="
  M 104.10 140.55
  Q 109.24 137.89 113.42 133.93
  C 117.27 130.28 121.32 126.43 124.35 122.18
  Q 131.19 112.60 133.86 102.57
  C 134.84 98.91 136.20 94.88 136.30 91.10
  Q 136.40 87.07 136.44 78.07
  Q 136.46 72.29 135.15 66.77
  Q 131.59 51.81 122.77 40.77
  Q 118.51 35.43 109.93 28.13"
/>
<path stroke="#6b603c" vector-effect="non-scaling-stroke" d="
  M 109.93 28.13
  Q 90.83 13.66 66.75 14.51
  Q 48.33 15.15 32.73 25.14"
/>
<path stroke="#bc9d5a" vector-effect="non-scaling-stroke" d="
  M 109.93 28.13
  Q 111.86 36.13 110.00 43.08"
/>
<path stroke="#bc9d5a" vector-effect="non-scaling-stroke" d="
  M 35.06 36.85
  Q 34.29 36.40 34.33 35.61
  Q 34.35 35.17 34.02 34.90
  Q 33.73 34.67 33.72 34.26
  Q 33.65 31.50 33.75 28.60
  Q 33.77 28.20 33.49 27.94
  Q 33.42 27.87 33.32 27.87
  Q 32.72 27.91 32.81 27.25
  Q 32.96 26.25 32.73 25.14"
/>
<path stroke="#bc9d5a" vector-effect="non-scaling-stroke" d="
  M 104.10 140.55
  Q 103.41 139.12 103.77 137.85
  Q 103.88 137.47 103.70 137.12
  Q 103.62 136.98 103.49 136.90
  Q 103.22 136.73 103.22 136.42
  L 103.22 132.45
  Q 103.22 132.05 103.35 131.68
  Q 103.75 130.44 102.44 128.30"
/>
<path stroke="#c2a561" vector-effect="non-scaling-stroke" d="
  M 31.00 124.37
  L 29.98 137.64"
/>
<path stroke="#c2a561" vector-effect="non-scaling-stroke" d="
  M 37.18 90.17
  L 36.45 75.33"
/>
</g>
<path fill="#000000" d="
  M 0.00 0.00
  L 145.00 0.00
  L 145.00 162.00
  L 0.00 162.00
  L 0.00 0.00
  Z
  M 32.73 25.14
  Q 8.59 40.92 2.75 68.89
  Q 0.57 79.36 1.73 89.99
  Q 1.86 91.26 2.94 91.99
  Q 4.18 92.84 5.23 91.76
  L 11.24 85.61
  Q 11.74 85.10 11.75 84.39
  Q 12.00 65.10 22.85 49.34
  Q 25.74 45.15 35.06 36.85
  Q 53.88 23.36 76.41 26.11
  Q 82.91 26.90 89.29 29.38
  Q 96.04 32.00 101.19 35.57
  Q 103.36 37.07 110.00 43.08
  Q 119.63 53.22 124.03 67.25
  Q 124.65 69.25 124.84 70.93
  C 125.19 74.01 125.83 77.01 125.94 80.09
  Q 126.64 100.55 114.08 116.84
  Q 110.49 121.49 102.44 128.30
  Q 70.61 149.48 37.80 129.69
  Q 35.96 128.58 31.00 124.37
  Q 24.26 117.85 19.05 108.77
  Q 18.80 108.32 19.16 107.96
  L 37.18 90.17
  L 40.00 87.51
  Q 40.35 87.18 40.69 87.52
  L 63.62 110.41
  A 1.80 1.80 0.0 0 0 66.16 110.41
  L 98.79 77.78
  Q 99.94 76.62 99.94 78.26
  L 99.95 87.74
  Q 99.95 88.29 100.49 88.29
  L 109.77 88.27
  A 0.60 0.60 0.0 0 0 110.37 87.67
  Q 110.39 75.47 110.36 62.27
  Q 110.35 60.71 110.15 59.12
  A 0.96 0.95 -3.4 0 0 109.20 58.28
  L 80.89 58.24
  Q 80.27 58.24 80.27 58.86
  L 80.27 68.12
  A 1.00 0.99 -86.8 0 0 81.15 69.11
  Q 86.25 69.70 91.31 69.13
  Q 91.77 69.08 91.44 69.40
  L 65.54 95.39
  Q 65.19 95.74 64.85 95.39
  Q 54.38 84.83 44.53 74.98
  Q 42.96 73.41 41.21 72.13
  Q 40.38 71.52 39.63 72.24
  L 36.45 75.33
  Q 21.81 89.72 7.46 104.28
  Q 6.74 105.01 6.47 105.97
  Q 6.16 107.11 6.58 108.01
  Q 13.87 123.66 21.98 131.28
  Q 23.76 132.95 29.98 137.64
  Q 41.39 145.55 55.38 148.70
  Q 58.44 149.38 61.59 149.57
  Q 64.67 149.74 67.92 150.11
  Q 72.82 150.65 77.06 149.92
  C 86.62 148.28 95.69 145.48 104.10 140.55
  Q 109.24 137.89 113.42 133.93
  C 117.27 130.28 121.32 126.43 124.35 122.18
  Q 131.19 112.60 133.86 102.57
  C 134.84 98.91 136.20 94.88 136.30 91.10
  Q 136.40 87.07 136.44 78.07
  Q 136.46 72.29 135.15 66.77
  Q 131.59 51.81 122.77 40.77
  Q 118.51 35.43 109.93 28.13
  Q 90.83 13.66 66.75 14.51
  Q 48.33 15.15 32.73 25.14
  Z"
/>
<path fill="#d5c077" d="
  M 109.93 28.13
  Q 111.86 36.13 110.00 43.08
  Q 103.36 37.07 101.19 35.57
  Q 96.04 32.00 89.29 29.38
  Q 82.91 26.90 76.41 26.11
  Q 53.88 23.36 35.06 36.85
  Q 34.29 36.40 34.33 35.61
  Q 34.35 35.17 34.02 34.90
  Q 33.73 34.67 33.72 34.26
  Q 33.65 31.50 33.75 28.60
  Q 33.77 28.20 33.49 27.94
  Q 33.42 27.87 33.32 27.87
  Q 32.72 27.91 32.81 27.25
  Q 32.96 26.25 32.73 25.14
  Q 48.33 15.15 66.75 14.51
  Q 90.83 13.66 109.93 28.13
  Z"
/>
<path fill="#a37a3d" d="
  M 32.73 25.14
  Q 32.96 26.25 32.81 27.25
  Q 32.72 27.91 33.32 27.87
  Q 33.42 27.87 33.49 27.94
  Q 33.77 28.20 33.75 28.60
  Q 33.65 31.50 33.72 34.26
  Q 33.73 34.67 34.02 34.90
  Q 34.35 35.17 34.33 35.61
  Q 34.29 36.40 35.06 36.85
  Q 25.74 45.15 22.85 49.34
  Q 12.00 65.10 11.75 84.39
  Q 11.74 85.10 11.24 85.61
  L 5.23 91.76
  Q 4.18 92.84 2.94 91.99
  Q 1.86 91.26 1.73 89.99
  Q 0.57 79.36 2.75 68.89
  Q 8.59 40.92 32.73 25.14
  Z"
/>
<path fill="#a37a3d" d="
  M 109.93 28.13
  Q 118.51 35.43 122.77 40.77
  Q 131.59 51.81 135.15 66.77
  Q 136.46 72.29 136.44 78.07
  Q 136.40 87.07 136.30 91.10
  C 136.20 94.88 134.84 98.91 133.86 102.57
  Q 131.19 112.60 124.35 122.18
  C 121.32 126.43 117.27 130.28 113.42 133.93
  Q 109.24 137.89 104.10 140.55
  Q 103.41 139.12 103.77 137.85
  Q 103.88 137.47 103.70 137.12
  Q 103.62 136.98 103.49 136.90
  Q 103.22 136.73 103.22 136.42
  L 103.22 132.45
  Q 103.22 132.05 103.35 131.68
  Q 103.75 130.44 102.44 128.30
  Q 110.49 121.49 114.08 116.84
  Q 126.64 100.55 125.94 80.09
  C 125.83 77.01 125.19 74.01 124.84 70.93
  Q 124.65 69.25 124.03 67.25
  Q 119.63 53.22 110.00 43.08
  Q 111.86 36.13 109.93 28.13
  Z"
/>
<path fill="#d5c077" d="
  M 37.18 90.17
  L 36.45 75.33
  L 39.63 72.24
  Q 40.38 71.52 41.21 72.13
  Q 42.96 73.41 44.53 74.98
  Q 54.38 84.83 64.85 95.39
  Q 65.19 95.74 65.54 95.39
  L 91.44 69.40
  Q 91.77 69.08 91.31 69.13
  Q 86.25 69.70 81.15 69.11
  A 1.00 0.99 -86.8 0 1 80.27 68.12
  L 80.27 58.86
  Q 80.27 58.24 80.89 58.24
  L 109.20 58.28
  A 0.96 0.95 -3.4 0 1 110.15 59.12
  Q 110.35 60.71 110.36 62.27
  Q 110.39 75.47 110.37 87.67
  A 0.60 0.60 0.0 0 1 109.77 88.27
  L 100.49 88.29
  Q 99.95 88.29 99.95 87.74
  L 99.94 78.26
  Q 99.94 76.62 98.79 77.78
  L 66.16 110.41
  A 1.80 1.80 0.0 0 1 63.62 110.41
  L 40.69 87.52
  Q 40.35 87.18 40.00 87.51
  L 37.18 90.17
  Z"
/>
<path fill="#af8a4a" d="
  M 36.45 75.33
  L 37.18 90.17
  L 19.16 107.96
  Q 18.80 108.32 19.05 108.77
  Q 24.26 117.85 31.00 124.37
  L 29.98 137.64
  Q 23.76 132.95 21.98 131.28
  Q 13.87 123.66 6.58 108.01
  Q 6.16 107.11 6.47 105.97
  Q 6.74 105.01 7.46 104.28
  Q 21.81 89.72 36.45 75.33
  Z"
/>
<path fill="#d5c077" d="
  M 31.00 124.37
  Q 35.96 128.58 37.80 129.69
  Q 70.61 149.48 102.44 128.30
  Q 103.75 130.44 103.35 131.68
  Q 103.22 132.05 103.22 132.45
  L 103.22 136.42
  Q 103.22 136.73 103.49 136.90
  Q 103.62 136.98 103.70 137.12
  Q 103.88 137.47 103.77 137.85
  Q 103.41 139.12 104.10 140.55
  C 95.69 145.48 86.62 148.28 77.06 149.92
  Q 72.82 150.65 67.92 150.11
  Q 64.67 149.74 61.59 149.57
  Q 58.44 149.38 55.38 148.70
  Q 41.39 145.55 29.98 137.64
  L 31.00 124.37
  Z"
/>
</svg>
